<svg width="343" height="180" viewBox="0 0 343 180" fill="none" xmlns="http://www.w3.org/2000/svg">
<path d="M197.044 38.7012H190.763C189.397 38.7012 188.098 39.3574 187.294 40.4824L166.241 69.6789L156.705 56.4467C155.901 55.3351 154.616 54.6655 153.236 54.6655H146.955C146.084 54.6655 145.575 55.6565 146.084 56.3664L162.772 79.5092C163.166 80.0594 163.686 80.5078 164.288 80.8171C164.89 81.1263 165.557 81.2877 166.234 81.2877C166.911 81.2877 167.578 81.1263 168.18 80.8171C168.782 80.5078 169.302 80.0594 169.696 79.5092L197.901 40.4021C198.424 39.6922 197.915 38.7012 197.044 38.7012Z" fill="#009C10" fill-opacity="0.85"/>
<path d="M172 0C138.866 0 112 26.8661 112 60C112 93.1339 138.866 120 172 120C205.134 120 232 93.1339 232 60C232 26.8661 205.134 0 172 0ZM172 109.821C144.491 109.821 122.179 87.5089 122.179 60C122.179 32.4911 144.491 10.1786 172 10.1786C199.509 10.1786 221.821 32.4911 221.821 60C221.821 87.5089 199.509 109.821 172 109.821Z" fill="#009C10" fill-opacity="0.85"/>
<path d="M13.7044 161.92C14.843 162.163 15.7577 162.732 16.4484 163.628C17.139 164.505 17.4844 165.513 17.4844 166.652C17.4844 168.295 16.9057 169.601 15.7484 170.572C14.6097 171.524 13.0137 172 10.9604 172H1.80436V152.344H10.6524C12.6497 152.344 14.2084 152.801 15.3284 153.716C16.467 154.631 17.0364 155.872 17.0364 157.44C17.0364 158.597 16.7284 159.559 16.1124 160.324C15.515 161.089 14.7124 161.621 13.7044 161.92ZM6.59236 160.296H9.72836C10.5124 160.296 11.1097 160.128 11.5204 159.792C11.9497 159.437 12.1644 158.924 12.1644 158.252C12.1644 157.58 11.9497 157.067 11.5204 156.712C11.1097 156.357 10.5124 156.18 9.72836 156.18H6.59236V160.296ZM10.1204 168.136C10.923 168.136 11.539 167.959 11.9684 167.604C12.4164 167.231 12.6404 166.699 12.6404 166.008C12.6404 165.317 12.407 164.776 11.9404 164.384C11.4924 163.992 10.867 163.796 10.0644 163.796H6.59236V168.136H10.1204ZM19.3094 164.16C19.3094 162.555 19.6081 161.145 20.2054 159.932C20.8214 158.719 21.6521 157.785 22.6974 157.132C23.7427 156.479 24.9094 156.152 26.1974 156.152C27.2987 156.152 28.2601 156.376 29.0814 156.824C29.9214 157.272 30.5654 157.86 31.0134 158.588V156.376H35.8014V172H31.0134V169.788C30.5467 170.516 29.8934 171.104 29.0534 171.552C28.2321 172 27.2707 172.224 26.1694 172.224C24.9001 172.224 23.7427 171.897 22.6974 171.244C21.6521 170.572 20.8214 169.629 20.2054 168.416C19.6081 167.184 19.3094 165.765 19.3094 164.16ZM31.0134 164.188C31.0134 162.993 30.6774 162.051 30.0054 161.36C29.3521 160.669 28.5494 160.324 27.5974 160.324C26.6454 160.324 25.8334 160.669 25.1614 161.36C24.5081 162.032 24.1814 162.965 24.1814 164.16C24.1814 165.355 24.5081 166.307 25.1614 167.016C25.8334 167.707 26.6454 168.052 27.5974 168.052C28.5494 168.052 29.3521 167.707 30.0054 167.016C30.6774 166.325 31.0134 165.383 31.0134 164.188ZM47.1613 173.148C48.132 173.148 48.9813 173.409 49.7093 173.932C50.4373 174.473 50.8013 175.276 50.8013 176.34C50.8013 177.404 50.4186 178.207 49.6533 178.748C48.888 179.308 47.9733 179.588 46.9093 179.588H42.5973V176.956H46.2653C46.6386 176.956 46.9186 176.9 47.1053 176.788C47.292 176.676 47.3853 176.489 47.3853 176.228C47.3853 175.967 47.292 175.78 47.1053 175.668C46.9186 175.575 46.6386 175.528 46.2653 175.528H44.2773V172.14C42.5786 171.916 41.1973 171.328 40.1333 170.376C39.088 169.405 38.5186 168.239 38.4253 166.876H43.1573C43.2133 167.417 43.4653 167.856 43.9133 168.192C44.3613 168.528 44.912 168.696 45.5653 168.696C46.1626 168.696 46.62 168.584 46.9373 168.36C47.2733 168.117 47.4413 167.809 47.4413 167.436C47.4413 166.988 47.208 166.661 46.7413 166.456C46.2746 166.232 45.5186 165.989 44.4733 165.728C43.3533 165.467 42.42 165.196 41.6733 164.916C40.9266 164.617 40.2826 164.16 39.7413 163.544C39.2 162.909 38.9293 162.06 38.9293 160.996C38.9293 160.1 39.172 159.288 39.6573 158.56C40.1613 157.813 40.8893 157.225 41.8413 156.796C42.812 156.367 43.96 156.152 45.2853 156.152C47.2453 156.152 48.7853 156.637 49.9053 157.608C51.044 158.579 51.6973 159.867 51.8653 161.472H47.4413C47.3666 160.931 47.124 160.501 46.7133 160.184C46.3213 159.867 45.7986 159.708 45.1453 159.708C44.5853 159.708 44.156 159.82 43.8573 160.044C43.5586 160.249 43.4093 160.539 43.4093 160.912C43.4093 161.36 43.6426 161.696 44.1093 161.92C44.5946 162.144 45.3413 162.368 46.3493 162.592C47.5066 162.891 48.4493 163.189 49.1773 163.488C49.9053 163.768 50.54 164.235 51.0813 164.888C51.6413 165.523 51.9306 166.381 51.9493 167.464C51.9493 168.659 51.52 169.676 50.6613 170.516C49.8213 171.337 48.6546 171.869 47.1613 172.112V173.148ZM53.9266 164.16C53.9266 162.555 54.2252 161.145 54.8226 159.932C55.4386 158.719 56.2692 157.785 57.3146 157.132C58.3599 156.479 59.5266 156.152 60.8146 156.152C61.9159 156.152 62.8772 156.376 63.6986 156.824C64.5386 157.272 65.1826 157.86 65.6306 158.588V156.376H70.4186V172H65.6306V169.788C65.1639 170.516 64.5106 171.104 63.6706 171.552C62.8492 172 61.8879 172.224 60.7866 172.224C59.5172 172.224 58.3599 171.897 57.3146 171.244C56.2692 170.572 55.4386 169.629 54.8226 168.416C54.2252 167.184 53.9266 165.765 53.9266 164.16ZM65.6306 164.188C65.6306 162.993 65.2946 162.051 64.6226 161.36C63.9692 160.669 63.1666 160.324 62.2146 160.324C61.2626 160.324 60.4506 160.669 59.7786 161.36C59.1252 162.032 58.7986 162.965 58.7986 164.16C58.7986 165.355 59.1252 166.307 59.7786 167.016C60.4506 167.707 61.2626 168.052 62.2146 168.052C63.1666 168.052 63.9692 167.707 64.6226 167.016C65.2946 166.325 65.6306 165.383 65.6306 164.188ZM78.6705 158.98C79.2305 158.121 79.9305 157.449 80.7705 156.964C81.6105 156.46 82.5438 156.208 83.5705 156.208V161.276H82.2545C81.0598 161.276 80.1638 161.537 79.5665 162.06C78.9692 162.564 78.6705 163.46 78.6705 164.748V172H73.8825V156.376H78.6705V158.98ZM91.011 156.376V172H86.223V156.376H91.011ZM110.815 156.376L101.015 179.42H95.8631L99.4471 171.468L93.0911 156.376H98.4391L102.051 166.148L105.635 156.376H110.815ZM117.335 151.28V172H112.547V151.28H117.335ZM119.852 164.16C119.852 162.555 120.151 161.145 120.748 159.932C121.364 158.719 122.195 157.785 123.24 157.132C124.286 156.479 125.452 156.152 126.74 156.152C127.842 156.152 128.803 156.376 129.624 156.824C130.464 157.272 131.108 157.86 131.556 158.588V156.376H136.344V172H131.556V169.788C131.09 170.516 130.436 171.104 129.596 171.552C128.775 172 127.814 172.224 126.712 172.224C125.443 172.224 124.286 171.897 123.24 171.244C122.195 170.572 121.364 169.629 120.748 168.416C120.151 167.184 119.852 165.765 119.852 164.16ZM131.556 164.188C131.556 162.993 131.22 162.051 130.548 161.36C129.895 160.669 129.092 160.324 128.14 160.324C127.188 160.324 126.376 160.669 125.704 161.36C125.051 162.032 124.724 162.965 124.724 164.16C124.724 165.355 125.051 166.307 125.704 167.016C126.376 167.707 127.188 168.052 128.14 168.052C129.092 168.052 129.895 167.707 130.548 167.016C131.22 166.325 131.556 165.383 131.556 164.188ZM159.882 152.344V156.18H154.674V172H149.886V156.18H144.678V152.344H159.882ZM161.333 164.16C161.333 162.555 161.631 161.145 162.229 159.932C162.845 158.719 163.675 157.785 164.721 157.132C165.766 156.479 166.933 156.152 168.221 156.152C169.322 156.152 170.283 156.376 171.105 156.824C171.945 157.272 172.589 157.86 173.037 158.588V156.376H177.825V172H173.037V169.788C172.57 170.516 171.917 171.104 171.077 171.552C170.255 172 169.294 172.224 168.193 172.224C166.923 172.224 165.766 171.897 164.721 171.244C163.675 170.572 162.845 169.629 162.229 168.416C161.631 167.184 161.333 165.765 161.333 164.16ZM173.037 164.188C173.037 162.993 172.701 162.051 172.029 161.36C171.375 160.669 170.573 160.324 169.621 160.324C168.669 160.324 167.857 160.669 167.185 161.36C166.531 162.032 166.205 162.965 166.205 164.16C166.205 165.355 166.531 166.307 167.185 167.016C167.857 167.707 168.669 168.052 169.621 168.052C170.573 168.052 171.375 167.707 172.029 167.016C172.701 166.325 173.037 165.383 173.037 164.188ZM201.225 156.208C203.166 156.208 204.706 156.796 205.845 157.972C207.002 159.148 207.581 160.781 207.581 162.872V172H202.821V163.516C202.821 162.508 202.55 161.733 202.009 161.192C201.486 160.632 200.758 160.352 199.825 160.352C198.891 160.352 198.154 160.632 197.613 161.192C197.09 161.733 196.829 162.508 196.829 163.516V172H192.069V163.516C192.069 162.508 191.798 161.733 191.257 161.192C190.734 160.632 190.006 160.352 189.073 160.352C188.139 160.352 187.402 160.632 186.861 161.192C186.338 161.733 186.077 162.508 186.077 163.516V172H181.289V156.376H186.077V158.336C186.562 157.683 187.197 157.169 187.981 156.796C188.765 156.404 189.651 156.208 190.641 156.208C191.817 156.208 192.862 156.46 193.777 156.964C194.71 157.468 195.438 158.187 195.961 159.12C196.502 158.261 197.239 157.561 198.173 157.02C199.106 156.479 200.123 156.208 201.225 156.208ZM209.977 164.16C209.977 162.555 210.276 161.145 210.873 159.932C211.489 158.719 212.32 157.785 213.365 157.132C214.411 156.479 215.577 156.152 216.865 156.152C217.967 156.152 218.928 156.376 219.749 156.824C220.589 157.272 221.233 157.86 221.681 158.588V156.376H226.469V172H221.681V169.788C221.215 170.516 220.561 171.104 219.721 171.552C218.9 172 217.939 172.224 216.837 172.224C215.568 172.224 214.411 171.897 213.365 171.244C212.32 170.572 211.489 169.629 210.873 168.416C210.276 167.184 209.977 165.765 209.977 164.16ZM221.681 164.188C221.681 162.993 221.345 162.051 220.673 161.36C220.02 160.669 219.217 160.324 218.265 160.324C217.313 160.324 216.501 160.669 215.829 161.36C215.176 162.032 214.849 162.965 214.849 164.16C214.849 165.355 215.176 166.307 215.829 167.016C216.501 167.707 217.313 168.052 218.265 168.052C219.217 168.052 220.02 167.707 220.673 167.016C221.345 166.325 221.681 165.383 221.681 164.188ZM249.869 156.208C251.811 156.208 253.351 156.796 254.489 157.972C255.647 159.148 256.225 160.781 256.225 162.872V172H251.465V163.516C251.465 162.508 251.195 161.733 250.653 161.192C250.131 160.632 249.403 160.352 248.469 160.352C247.536 160.352 246.799 160.632 246.257 161.192C245.735 161.733 245.473 162.508 245.473 163.516V172H240.713V163.516C240.713 162.508 240.443 161.733 239.901 161.192C239.379 160.632 238.651 160.352 237.717 160.352C236.784 160.352 236.047 160.632 235.505 161.192C234.983 161.733 234.721 162.508 234.721 163.516V172H229.933V156.376H234.721V158.336C235.207 157.683 235.841 157.169 236.625 156.796C237.409 156.404 238.296 156.208 239.285 156.208C240.461 156.208 241.507 156.46 242.421 156.964C243.355 157.468 244.083 158.187 244.605 159.12C245.147 158.261 245.884 157.561 246.817 157.02C247.751 156.479 248.768 156.208 249.869 156.208ZM264.362 151.28V172H259.574V151.28H264.362ZM266.88 164.16C266.88 162.555 267.178 161.145 267.776 159.932C268.392 158.719 269.222 157.785 270.268 157.132C271.313 156.479 272.48 156.152 273.768 156.152C274.869 156.152 275.83 156.376 276.652 156.824C277.492 157.272 278.136 157.86 278.584 158.588V156.376H283.372V172H278.584V169.788C278.117 170.516 277.464 171.104 276.624 171.552C275.802 172 274.841 172.224 273.74 172.224C272.47 172.224 271.313 171.897 270.268 171.244C269.222 170.572 268.392 169.629 267.776 168.416C267.178 167.184 266.88 165.765 266.88 164.16ZM278.584 164.188C278.584 162.993 278.248 162.051 277.576 161.36C276.922 160.669 276.12 160.324 275.168 160.324C274.216 160.324 273.404 160.669 272.732 161.36C272.078 162.032 271.752 162.965 271.752 164.16C271.752 165.355 272.078 166.307 272.732 167.016C273.404 167.707 274.216 168.052 275.168 168.052C276.12 168.052 276.922 167.707 277.576 167.016C278.248 166.325 278.584 165.383 278.584 164.188ZM296.356 156.208C298.185 156.208 299.641 156.805 300.724 158C301.825 159.176 302.376 160.8 302.376 162.872V172H297.616V163.516C297.616 162.471 297.345 161.659 296.804 161.08C296.262 160.501 295.534 160.212 294.62 160.212C293.705 160.212 292.977 160.501 292.436 161.08C291.894 161.659 291.624 162.471 291.624 163.516V172H286.836V156.376H291.624V158.448C292.109 157.757 292.762 157.216 293.584 156.824C294.405 156.413 295.329 156.208 296.356 156.208ZM304.751 164.16C304.751 162.555 305.049 161.145 305.647 159.932C306.263 158.719 307.093 157.785 308.139 157.132C309.184 156.479 310.351 156.152 311.639 156.152C312.665 156.152 313.599 156.367 314.439 156.796C315.297 157.225 315.969 157.804 316.455 158.532V151.28H321.243V172H316.455V169.76C316.007 170.507 315.363 171.104 314.523 171.552C313.701 172 312.74 172.224 311.639 172.224C310.351 172.224 309.184 171.897 308.139 171.244C307.093 170.572 306.263 169.629 305.647 168.416C305.049 167.184 304.751 165.765 304.751 164.16ZM316.455 164.188C316.455 162.993 316.119 162.051 315.447 161.36C314.793 160.669 313.991 160.324 313.039 160.324C312.087 160.324 311.275 160.669 310.603 161.36C309.949 162.032 309.623 162.965 309.623 164.16C309.623 165.355 309.949 166.307 310.603 167.016C311.275 167.707 312.087 168.052 313.039 168.052C313.991 168.052 314.793 167.707 315.447 167.016C316.119 166.325 316.455 165.383 316.455 164.188ZM329.859 156.376V172H325.071V156.376H329.859ZM340.003 151.644L339.443 165.056H335.383L334.823 151.644H340.003ZM337.483 172.224C336.643 172.224 335.952 171.981 335.411 171.496C334.888 170.992 334.627 170.376 334.627 169.648C334.627 168.901 334.888 168.276 335.411 167.772C335.952 167.268 336.643 167.016 337.483 167.016C338.304 167.016 338.976 167.268 339.499 167.772C340.04 168.276 340.311 168.901 340.311 169.648C340.311 170.376 340.04 170.992 339.499 171.496C338.976 171.981 338.304 172.224 337.483 172.224Z" fill="black"/>
</svg>
